<?xml version="1.0" standalone="no"?>
<!DOCTYPE svg PUBLIC "-//W3C//DTD SVG 20010904//EN"
 "http://www.w3.org/TR/2001/REC-SVG-20010904/DTD/svg10.dtd">
<svg version="1.0" xmlns="http://www.w3.org/2000/svg"
 width="512.000000pt" height="512.000000pt" viewBox="0 0 512.000000 512.000000"
 preserveAspectRatio="xMidYMid meet">
<metadata>
Created by potrace 1.11, written by Peter Selinger 2001-2013
</metadata>
<g transform="translate(0.000000,512.000000) scale(0.100000,-0.100000)"
fill="#000000" stroke="none">
<path d="M0 2560 l0 -2560 2560 0 2560 0 0 2560 0 2560 -2560 0 -2560 0 0
-2560z m3647 2342 c6 -4 43 -47 82 -97 92 -116 114 -143 338 -427 104 -130
276 -347 383 -483 107 -135 268 -338 357 -451 l163 -204 0 -54 c0 -30 -4 -57
-9 -60 -5 -3 -11 -23 -14 -43 -11 -72 -18 -108 -27 -128 -5 -11 -11 -33 -14
-50 -3 -16 -10 -52 -16 -80 -6 -27 -14 -67 -17 -88 -3 -20 -9 -40 -14 -43 -5
-3 -9 -23 -9 -44 0 -21 -4 -41 -9 -44 -8 -6 -11 -20 -27 -124 -3 -23 -10 -45
-15 -48 -5 -3 -9 -21 -9 -40 0 -19 -4 -42 -9 -52 -15 -31 -31 -88 -31 -115 0
-14 -4 -29 -10 -32 -5 -3 -10 -24 -10 -45 0 -21 -4 -41 -9 -44 -5 -3 -12 -24
-15 -46 -3 -22 -9 -58 -12 -80 -3 -22 -10 -43 -15 -46 -5 -3 -9 -23 -9 -44 0
-21 -4 -41 -9 -44 -5 -3 -12 -24 -15 -46 -3 -22 -9 -58 -12 -80 -3 -22 -10
-43 -15 -46 -5 -3 -9 -23 -9 -44 0 -21 -4 -41 -9 -44 -5 -3 -12 -24 -15 -46
-3 -22 -9 -58 -12 -80 -3 -22 -10 -43 -15 -46 -5 -3 -9 -23 -9 -44 0 -21 -4
-41 -9 -44 -5 -3 -11 -23 -14 -43 -4 -21 -10 -58 -14 -83 l-8 -44 -125 -62
c-135 -67 -365 -178 -525 -254 -55 -26 -167 -80 -250 -120 -82 -40 -197 -95
-255 -122 -99 -47 -114 -55 -157 -77 -10 -5 -72 -35 -138 -66 -166 -79 -382
-183 -428 -206 -22 -10 -44 -19 -50 -19 -7 0 -86 36 -177 81 -91 45 -219 107
-285 139 -66 32 -190 91 -275 133 -85 41 -218 105 -295 142 -77 37 -214 103
-305 147 -91 44 -221 107 -290 140 -119 57 -136 66 -177 87 -10 5 -35 17 -55
26 -41 17 -57 40 -70 98 -4 20 -12 54 -17 75 -12 49 -30 127 -41 177 -5 22
-14 60 -20 85 -6 25 -15 64 -21 88 -5 23 -13 61 -18 85 -6 23 -15 62 -21 87
-6 25 -15 61 -19 80 -11 42 -29 120 -41 175 -5 22 -14 60 -20 85 -6 25 -15 64
-21 88 -5 23 -13 61 -18 85 -6 23 -15 62 -21 87 -6 25 -15 63 -20 85 -5 22
-14 60 -20 85 -6 25 -15 63 -20 85 -5 22 -14 60 -20 85 -6 25 -15 64 -21 88
-5 23 -13 61 -18 85 -10 42 -23 98 -42 172 -5 22 -14 62 -19 89 -10 53 -13 47
85 165 17 20 44 54 60 76 16 22 54 70 85 106 30 37 75 93 100 124 25 31 71 88
102 126 32 38 77 95 100 125 55 72 82 105 203 255 56 68 110 136 120 150 44
58 430 536 453 562 l26 27 1055 0 c581 0 1061 -4 1068 -8z"/>
<path d="M1999 4435 c-3 -2 -45 -9 -94 -15 -145 -17 -169 -22 -180 -31 -5 -5
-24 -9 -41 -9 -18 0 -36 -4 -39 -10 -3 -5 -19 -10 -34 -10 -49 0 -51 -8 -51
-242 l0 -219 118 3 117 3 6 55 c4 30 10 67 15 82 17 50 70 113 115 136 42 21
55 23 165 19 140 -5 173 -11 234 -40 43 -20 190 -155 190 -174 0 -5 8 -18 18
-29 16 -19 29 -39 56 -89 6 -11 13 -22 16 -25 11 -10 90 -175 90 -187 0 -7 5
-13 10 -13 6 0 10 -9 10 -20 0 -11 -4 -20 -10 -20 -5 0 -10 -9 -10 -20 0 -11
-4 -20 -10 -20 -5 0 -10 -9 -10 -20 0 -11 -4 -20 -10 -20 -5 0 -10 -9 -10 -19
0 -11 -3 -21 -7 -23 -7 -3 -90 -164 -327 -633 -50 -99 -94 -181 -98 -183 -5
-2 -8 -12 -8 -23 0 -10 -4 -19 -10 -19 -5 0 -10 -9 -10 -20 0 -11 -4 -20 -10
-20 -5 0 -10 -9 -10 -19 0 -11 -3 -21 -8 -23 -4 -1 -62 -111 -128 -243 -260
-517 -329 -650 -344 -659 -8 -5 -58 -9 -110 -8 -52 2 -101 -1 -108 -6 -10 -7
-13 -40 -13 -123 l0 -114 616 -3 616 -2 -3 122 -3 123 -125 1 c-69 1 -124 3
-124 5 15 40 40 89 46 89 5 0 8 9 8 19 0 11 3 21 8 23 6 3 35 56 126 233 17
33 34 62 39 63 4 2 7 12 7 23 0 10 5 19 10 19 6 0 10 9 10 19 0 11 3 21 8 23
4 2 22 31 40 66 17 34 47 90 65 125 17 34 35 64 40 65 4 2 7 12 7 23 0 10 5
19 10 19 6 0 10 9 10 19 0 11 3 21 8 23 4 2 22 31 40 66 17 34 47 90 65 125
17 34 35 64 40 65 4 2 7 12 7 23 0 43 32 9 50 -53 8 -27 17 -48 20 -48 4 0 13
-22 20 -50 7 -27 16 -50 20 -50 4 0 13 -22 20 -50 7 -27 17 -50 22 -50 4 0 8
-11 8 -24 0 -14 5 -28 10 -31 6 -3 10 -15 10 -26 0 -10 5 -19 10 -19 6 0 10
-11 10 -24 0 -14 5 -28 10 -31 6 -3 10 -15 10 -26 0 -10 5 -19 10 -19 6 0 10
-11 10 -24 0 -14 5 -28 10 -31 6 -3 10 -15 10 -26 0 -10 5 -19 10 -19 6 0 10
-9 10 -20 0 -11 4 -28 9 -38 9 -17 24 -53 44 -102 5 -14 14 -36 20 -50 5 -14
14 -36 20 -50 5 -14 13 -34 17 -45 4 -11 12 -32 19 -47 6 -16 16 -40 22 -55 7
-16 16 -39 22 -53 5 -14 14 -33 19 -43 5 -11 7 -21 4 -24 -3 -3 -65 -6 -138
-7 l-133 -1 -3 -123 -3 -122 403 2 403 3 3 114 c2 85 -1 117 -10 123 -7 5 -62
8 -123 6 l-110 -2 -22 45 c-11 24 -28 60 -36 79 -8 19 -22 52 -31 73 -9 20
-22 52 -30 70 -7 17 -20 48 -29 67 -8 19 -21 51 -30 70 -36 85 -50 118 -69
160 -11 25 -24 54 -28 65 -4 11 -18 43 -30 70 -12 28 -26 59 -30 70 -4 11 -18
43 -30 70 -12 28 -26 59 -30 70 -4 11 -18 43 -30 70 -12 28 -26 59 -30 70 -9
24 -48 113 -61 137 -5 10 -9 25 -9 33 0 8 -4 15 -10 15 -5 0 -10 7 -10 15 0 8
-5 24 -10 35 -6 11 -15 29 -20 40 -6 11 -10 27 -10 35 0 8 -4 15 -10 15 -5 0
-10 7 -10 15 0 8 -5 25 -12 38 -24 47 -28 57 -28 72 0 8 -4 15 -10 15 -5 0
-10 7 -10 15 0 8 -4 24 -10 35 -5 11 -14 29 -20 40 -5 11 -10 27 -10 35 0 8
-4 15 -10 15 -5 0 -10 7 -10 15 0 8 -4 24 -10 35 -5 11 -14 29 -20 40 -5 11
-10 27 -10 35 0 8 -4 15 -10 15 -5 0 -10 7 -10 15 0 8 -4 24 -10 35 -5 11 -14
29 -20 40 -5 11 -10 27 -10 35 0 8 -4 15 -10 15 -5 0 -10 7 -10 15 0 8 -4 24
-10 35 -5 11 -14 29 -20 40 -5 11 -10 27 -10 35 0 8 -4 15 -10 15 -5 0 -10 6
-10 13 0 15 -102 221 -112 225 -5 2 -8 8 -8 14 0 9 -57 98 -70 108 -3 3 -17
21 -30 40 -49 70 -218 220 -248 220 -7 0 -12 3 -12 8 0 4 -15 13 -32 20 -18 8
-44 18 -58 24 -70 30 -118 42 -218 57 -79 12 -106 13 -113 6z"/>
</g>
</svg>
